<mxfile host="Electron" modified="2024-04-29T13:43:34.218Z" agent="Mozilla/5.0 (Windows NT 10.0; Win64; x64) AppleWebKit/537.36 (KHTML, like Gecko) draw.io/23.1.5 Chrome/120.0.6099.109 Electron/28.1.0 Safari/537.36" etag="_r0HMs9nD7YSSHOj-esx" version="23.1.5" type="device">
  <diagram name="Pagina-1" id="2E39NDmfMYuv_2c8OxZy">
    <mxGraphModel dx="819" dy="478" grid="1" gridSize="10" guides="1" tooltips="1" connect="1" arrows="1" fold="1" page="1" pageScale="1" pageWidth="827" pageHeight="1169" math="0" shadow="0">
      <root>
        <mxCell id="0" />
        <mxCell id="1" parent="0" />
        <mxCell id="YHuVpkroIluG6QRTz7fR-1" value="" style="rounded=0;whiteSpace=wrap;html=1;fillColor=none;" vertex="1" parent="1">
          <mxGeometry x="712.5" y="400" width="100" height="100" as="geometry" />
        </mxCell>
        <mxCell id="YHuVpkroIluG6QRTz7fR-2" value="" style="ellipse;whiteSpace=wrap;html=1;aspect=fixed;fillColor=#000000;" vertex="1" parent="1">
          <mxGeometry x="710" y="396" width="10" height="10" as="geometry" />
        </mxCell>
        <mxCell id="YHuVpkroIluG6QRTz7fR-3" value="" style="ellipse;whiteSpace=wrap;html=1;aspect=fixed;fillColor=#000000;" vertex="1" parent="1">
          <mxGeometry x="707.5" y="495" width="10" height="10" as="geometry" />
        </mxCell>
        <mxCell id="YHuVpkroIluG6QRTz7fR-4" value="" style="ellipse;whiteSpace=wrap;html=1;aspect=fixed;fillColor=#000000;" vertex="1" parent="1">
          <mxGeometry x="807.5" y="395" width="10" height="10" as="geometry" />
        </mxCell>
        <mxCell id="YHuVpkroIluG6QRTz7fR-5" value="" style="ellipse;whiteSpace=wrap;html=1;aspect=fixed;fillColor=#000000;" vertex="1" parent="1">
          <mxGeometry x="808" y="495" width="10" height="10" as="geometry" />
        </mxCell>
        <mxCell id="YHuVpkroIluG6QRTz7fR-7" value="" style="endArrow=none;dashed=1;html=1;rounded=0;entryX=0.5;entryY=0;entryDx=0;entryDy=0;exitX=0.583;exitY=-0.005;exitDx=0;exitDy=0;exitPerimeter=0;" edge="1" parent="1" source="YHuVpkroIluG6QRTz7fR-46" target="YHuVpkroIluG6QRTz7fR-6">
          <mxGeometry width="50" height="50" relative="1" as="geometry">
            <mxPoint x="765" y="450" as="sourcePoint" />
            <mxPoint x="815" y="400" as="targetPoint" />
          </mxGeometry>
        </mxCell>
        <mxCell id="YHuVpkroIluG6QRTz7fR-8" value="" style="endArrow=none;dashed=1;html=1;rounded=0;entryX=-0.007;entryY=0.372;entryDx=0;entryDy=0;exitX=0;exitY=0.5;exitDx=0;exitDy=0;entryPerimeter=0;" edge="1" parent="1" source="YHuVpkroIluG6QRTz7fR-6" target="YHuVpkroIluG6QRTz7fR-1">
          <mxGeometry width="50" height="50" relative="1" as="geometry">
            <mxPoint x="795" y="410" as="sourcePoint" />
            <mxPoint x="795" y="436" as="targetPoint" />
          </mxGeometry>
        </mxCell>
        <mxCell id="YHuVpkroIluG6QRTz7fR-9" value="&lt;font face=&quot;Computer modern&quot;&gt;∆&lt;i&gt;v&lt;/i&gt;&lt;/font&gt;" style="text;html=1;align=center;verticalAlign=middle;whiteSpace=wrap;rounded=0;" vertex="1" parent="1">
          <mxGeometry x="770" y="400" width="15" height="40" as="geometry" />
        </mxCell>
        <mxCell id="YHuVpkroIluG6QRTz7fR-10" value="&lt;font face=&quot;Computer modern&quot;&gt;∆&lt;i&gt;u&lt;/i&gt;&lt;/font&gt;" style="text;html=1;align=center;verticalAlign=middle;whiteSpace=wrap;rounded=0;" vertex="1" parent="1">
          <mxGeometry x="712.5" y="437" width="60" height="9" as="geometry" />
        </mxCell>
        <mxCell id="YHuVpkroIluG6QRTz7fR-11" value="&lt;font face=&quot;Computer modern&quot;&gt;&lt;i&gt;I&lt;/i&gt;&lt;sub style=&quot;&quot;&gt;1&lt;/sub&gt;=&lt;i&gt;I&lt;/i&gt;(&lt;i&gt;u&lt;/i&gt;&lt;sub style=&quot;&quot;&gt;1&lt;/sub&gt;&lt;i&gt;, v&lt;/i&gt;&lt;sub style=&quot;&quot;&gt;1&lt;/sub&gt;)&lt;/font&gt;" style="text;html=1;align=center;verticalAlign=middle;whiteSpace=wrap;rounded=0;" vertex="1" parent="1">
          <mxGeometry x="682.5" y="380" width="65" height="15" as="geometry" />
        </mxCell>
        <mxCell id="YHuVpkroIluG6QRTz7fR-12" value="&lt;font face=&quot;Computer modern&quot;&gt;&lt;i&gt;I&lt;/i&gt;&lt;sub style=&quot;&quot;&gt;2&lt;/sub&gt;=&lt;i&gt;I&lt;/i&gt;(&lt;i&gt;u&lt;/i&gt;&lt;sub style=&quot;&quot;&gt;2&lt;/sub&gt;&lt;i&gt;, v&lt;/i&gt;&lt;sub style=&quot;&quot;&gt;2&lt;/sub&gt;)&lt;/font&gt;" style="text;html=1;align=center;verticalAlign=middle;whiteSpace=wrap;rounded=0;" vertex="1" parent="1">
          <mxGeometry x="780.5" y="380" width="65" height="15" as="geometry" />
        </mxCell>
        <mxCell id="YHuVpkroIluG6QRTz7fR-13" value="&lt;font face=&quot;Computer modern&quot;&gt;&lt;i&gt;I&lt;/i&gt;&lt;sub style=&quot;&quot;&gt;4&lt;/sub&gt;=&lt;i&gt;I&lt;/i&gt;(&lt;i&gt;u&lt;/i&gt;&lt;sub style=&quot;&quot;&gt;4&lt;/sub&gt;&lt;i&gt;, v&lt;/i&gt;&lt;sub style=&quot;&quot;&gt;4&lt;/sub&gt;)&lt;/font&gt;" style="text;html=1;align=center;verticalAlign=middle;whiteSpace=wrap;rounded=0;" vertex="1" parent="1">
          <mxGeometry x="780.5" y="505" width="65" height="15" as="geometry" />
        </mxCell>
        <mxCell id="YHuVpkroIluG6QRTz7fR-14" value="&lt;font face=&quot;Computer modern&quot;&gt;&lt;i&gt;I&lt;/i&gt;&lt;sub style=&quot;&quot;&gt;3&lt;/sub&gt;=&lt;i&gt;I&lt;/i&gt;(&lt;i&gt;u&lt;/i&gt;&lt;sub style=&quot;&quot;&gt;3&lt;/sub&gt;&lt;i&gt;, v&lt;/i&gt;&lt;sub style=&quot;&quot;&gt;3&lt;/sub&gt;)&lt;/font&gt;" style="text;html=1;align=center;verticalAlign=middle;whiteSpace=wrap;rounded=0;" vertex="1" parent="1">
          <mxGeometry x="680" y="505" width="65" height="15" as="geometry" />
        </mxCell>
        <mxCell id="YHuVpkroIluG6QRTz7fR-16" value="&lt;font face=&quot;Computer modern&quot;&gt;&lt;i&gt;I&lt;/i&gt;(&lt;/font&gt;∆&lt;font face=&quot;Computer modern&quot;&gt;&lt;i&gt;u&lt;/i&gt;&lt;i&gt;,&lt;/i&gt;&lt;/font&gt;∆&lt;font face=&quot;Computer modern&quot;&gt;&lt;i&gt;v&lt;/i&gt;)&lt;/font&gt;" style="text;html=1;align=center;verticalAlign=middle;whiteSpace=wrap;rounded=0;" vertex="1" parent="1">
          <mxGeometry x="767.5" y="439" width="50" height="15" as="geometry" />
        </mxCell>
        <mxCell id="YHuVpkroIluG6QRTz7fR-18" value="" style="endArrow=none;dashed=1;html=1;rounded=0;exitX=0.5;exitY=1;exitDx=0;exitDy=0;entryX=0.583;entryY=1.004;entryDx=0;entryDy=0;entryPerimeter=0;" edge="1" parent="1" source="YHuVpkroIluG6QRTz7fR-44" target="YHuVpkroIluG6QRTz7fR-1">
          <mxGeometry width="50" height="50" relative="1" as="geometry">
            <mxPoint x="785" y="470" as="sourcePoint" />
            <mxPoint x="745" y="510" as="targetPoint" />
          </mxGeometry>
        </mxCell>
        <mxCell id="YHuVpkroIluG6QRTz7fR-6" value="" style="ellipse;whiteSpace=wrap;html=1;aspect=fixed;fillColor=#000000;" vertex="1" parent="1">
          <mxGeometry x="765.5" y="432" width="10" height="10" as="geometry" />
        </mxCell>
        <mxCell id="YHuVpkroIluG6QRTz7fR-20" value="" style="rounded=0;whiteSpace=wrap;html=1;fillColor=none;" vertex="1" parent="1">
          <mxGeometry x="140" y="400" width="100" height="100" as="geometry" />
        </mxCell>
        <mxCell id="YHuVpkroIluG6QRTz7fR-21" value="" style="ellipse;whiteSpace=wrap;html=1;aspect=fixed;fillColor=#000000;" vertex="1" parent="1">
          <mxGeometry x="135" y="395" width="10" height="10" as="geometry" />
        </mxCell>
        <mxCell id="YHuVpkroIluG6QRTz7fR-22" value="" style="ellipse;whiteSpace=wrap;html=1;aspect=fixed;fillColor=#000000;" vertex="1" parent="1">
          <mxGeometry x="135" y="495" width="10" height="10" as="geometry" />
        </mxCell>
        <mxCell id="YHuVpkroIluG6QRTz7fR-23" value="" style="ellipse;whiteSpace=wrap;html=1;aspect=fixed;fillColor=#000000;" vertex="1" parent="1">
          <mxGeometry x="235.5" y="395" width="10" height="10" as="geometry" />
        </mxCell>
        <mxCell id="YHuVpkroIluG6QRTz7fR-24" value="" style="ellipse;whiteSpace=wrap;html=1;aspect=fixed;fillColor=#000000;" vertex="1" parent="1">
          <mxGeometry x="234" y="495" width="10" height="10" as="geometry" />
        </mxCell>
        <mxCell id="YHuVpkroIluG6QRTz7fR-25" value="" style="endArrow=none;dashed=1;html=1;rounded=0;entryX=0.5;entryY=0;entryDx=0;entryDy=0;exitX=0.583;exitY=-0.005;exitDx=0;exitDy=0;exitPerimeter=0;" edge="1" parent="1" source="YHuVpkroIluG6QRTz7fR-20" target="YHuVpkroIluG6QRTz7fR-35">
          <mxGeometry width="50" height="50" relative="1" as="geometry">
            <mxPoint x="192.5" y="450" as="sourcePoint" />
            <mxPoint x="242.5" y="400" as="targetPoint" />
          </mxGeometry>
        </mxCell>
        <mxCell id="YHuVpkroIluG6QRTz7fR-26" value="" style="endArrow=none;dashed=1;html=1;rounded=0;entryX=-0.007;entryY=0.372;entryDx=0;entryDy=0;exitX=0;exitY=0.5;exitDx=0;exitDy=0;entryPerimeter=0;" edge="1" parent="1" source="YHuVpkroIluG6QRTz7fR-35" target="YHuVpkroIluG6QRTz7fR-20">
          <mxGeometry width="50" height="50" relative="1" as="geometry">
            <mxPoint x="222.5" y="410" as="sourcePoint" />
            <mxPoint x="222.5" y="436" as="targetPoint" />
          </mxGeometry>
        </mxCell>
        <mxCell id="YHuVpkroIluG6QRTz7fR-27" value="&lt;font face=&quot;Computer modern&quot;&gt;∆&lt;i&gt;v&lt;/i&gt;&lt;/font&gt;" style="text;html=1;align=center;verticalAlign=middle;whiteSpace=wrap;rounded=0;" vertex="1" parent="1">
          <mxGeometry x="200" y="401" width="15" height="39" as="geometry" />
        </mxCell>
        <mxCell id="YHuVpkroIluG6QRTz7fR-28" value="&lt;font face=&quot;Computer modern&quot;&gt;∆&lt;i&gt;u&lt;/i&gt;&lt;/font&gt;" style="text;html=1;align=center;verticalAlign=middle;whiteSpace=wrap;rounded=0;" vertex="1" parent="1">
          <mxGeometry x="140" y="437" width="60" height="9" as="geometry" />
        </mxCell>
        <mxCell id="YHuVpkroIluG6QRTz7fR-29" value="&lt;font face=&quot;Computer modern&quot;&gt;&lt;i&gt;I&lt;/i&gt;&lt;sub style=&quot;&quot;&gt;1&lt;/sub&gt;=&lt;i&gt;I&lt;/i&gt;(&lt;i&gt;u&lt;/i&gt;&lt;sub style=&quot;&quot;&gt;1&lt;/sub&gt;&lt;i&gt;, v&lt;/i&gt;&lt;sub style=&quot;&quot;&gt;1&lt;/sub&gt;)&lt;/font&gt;" style="text;html=1;align=center;verticalAlign=middle;whiteSpace=wrap;rounded=0;" vertex="1" parent="1">
          <mxGeometry x="110" y="380" width="65" height="15" as="geometry" />
        </mxCell>
        <mxCell id="YHuVpkroIluG6QRTz7fR-30" value="&lt;font face=&quot;Computer modern&quot;&gt;&lt;i&gt;I&lt;/i&gt;&lt;sub style=&quot;&quot;&gt;2&lt;/sub&gt;=&lt;i&gt;I&lt;/i&gt;(&lt;i&gt;u&lt;/i&gt;&lt;sub style=&quot;&quot;&gt;2&lt;/sub&gt;&lt;i&gt;, v&lt;/i&gt;&lt;sub style=&quot;&quot;&gt;2&lt;/sub&gt;)&lt;/font&gt;" style="text;html=1;align=center;verticalAlign=middle;whiteSpace=wrap;rounded=0;" vertex="1" parent="1">
          <mxGeometry x="208" y="380" width="65" height="15" as="geometry" />
        </mxCell>
        <mxCell id="YHuVpkroIluG6QRTz7fR-31" value="&lt;font face=&quot;Computer modern&quot;&gt;&lt;i&gt;I&lt;/i&gt;&lt;sub style=&quot;&quot;&gt;4&lt;/sub&gt;=&lt;i&gt;I&lt;/i&gt;(&lt;i&gt;u&lt;/i&gt;&lt;sub style=&quot;&quot;&gt;4&lt;/sub&gt;&lt;i&gt;, v&lt;/i&gt;&lt;sub style=&quot;&quot;&gt;4&lt;/sub&gt;)&lt;/font&gt;" style="text;html=1;align=center;verticalAlign=middle;whiteSpace=wrap;rounded=0;" vertex="1" parent="1">
          <mxGeometry x="208" y="505" width="65" height="15" as="geometry" />
        </mxCell>
        <mxCell id="YHuVpkroIluG6QRTz7fR-32" value="&lt;font face=&quot;Computer modern&quot;&gt;&lt;i&gt;I&lt;/i&gt;&lt;sub style=&quot;&quot;&gt;3&lt;/sub&gt;=&lt;i&gt;I&lt;/i&gt;(&lt;i&gt;u&lt;/i&gt;&lt;sub style=&quot;&quot;&gt;3&lt;/sub&gt;&lt;i&gt;, v&lt;/i&gt;&lt;sub style=&quot;&quot;&gt;3&lt;/sub&gt;)&lt;/font&gt;" style="text;html=1;align=center;verticalAlign=middle;whiteSpace=wrap;rounded=0;" vertex="1" parent="1">
          <mxGeometry x="107.5" y="505" width="65" height="15" as="geometry" />
        </mxCell>
        <mxCell id="YHuVpkroIluG6QRTz7fR-33" value="&lt;font face=&quot;Computer modern&quot;&gt;&lt;i&gt;I&lt;/i&gt;(&lt;/font&gt;∆&lt;font face=&quot;Computer modern&quot;&gt;&lt;i&gt;u&lt;/i&gt;&lt;i&gt;,&lt;/i&gt;&lt;/font&gt;∆&lt;font face=&quot;Computer modern&quot;&gt;&lt;i&gt;v&lt;/i&gt;)&lt;/font&gt;" style="text;html=1;align=center;verticalAlign=middle;whiteSpace=wrap;rounded=0;" vertex="1" parent="1">
          <mxGeometry x="194" y="440" width="50" height="15" as="geometry" />
        </mxCell>
        <mxCell id="YHuVpkroIluG6QRTz7fR-35" value="" style="ellipse;whiteSpace=wrap;html=1;aspect=fixed;fillColor=#000000;" vertex="1" parent="1">
          <mxGeometry x="193" y="432" width="10" height="10" as="geometry" />
        </mxCell>
        <mxCell id="YHuVpkroIluG6QRTz7fR-37" value="&lt;font face=&quot;Computer modern&quot;&gt;&lt;i&gt;I&lt;/i&gt;&lt;sub style=&quot;&quot;&gt;&lt;i&gt;b&lt;/i&gt;&lt;/sub&gt;&lt;/font&gt;" style="text;html=1;align=center;verticalAlign=middle;whiteSpace=wrap;rounded=0;" vertex="1" parent="1">
          <mxGeometry x="738" y="505" width="65" height="15" as="geometry" />
        </mxCell>
        <mxCell id="YHuVpkroIluG6QRTz7fR-38" value="&lt;font face=&quot;Computer modern&quot;&gt;&lt;i&gt;I&lt;/i&gt;&lt;sub style=&quot;&quot;&gt;&lt;i&gt;a&lt;/i&gt;&lt;/sub&gt;&lt;/font&gt;" style="text;html=1;align=center;verticalAlign=middle;whiteSpace=wrap;rounded=0;" vertex="1" parent="1">
          <mxGeometry x="738" y="380" width="65" height="15" as="geometry" />
        </mxCell>
        <mxCell id="YHuVpkroIluG6QRTz7fR-39" value="" style="endArrow=classic;startArrow=classic;html=1;rounded=0;entryX=1;entryY=1;entryDx=0;entryDy=0;" edge="1" parent="1" target="YHuVpkroIluG6QRTz7fR-41">
          <mxGeometry width="50" height="50" relative="1" as="geometry">
            <mxPoint x="140" y="370" as="sourcePoint" />
            <mxPoint x="260" y="370" as="targetPoint" />
          </mxGeometry>
        </mxCell>
        <mxCell id="YHuVpkroIluG6QRTz7fR-41" value="&lt;font face=&quot;Computer modern&quot;&gt;1&lt;/font&gt;" style="text;html=1;align=center;verticalAlign=middle;whiteSpace=wrap;rounded=0;" vertex="1" parent="1">
          <mxGeometry x="140" y="360" width="100" height="10" as="geometry" />
        </mxCell>
        <mxCell id="YHuVpkroIluG6QRTz7fR-42" value="" style="endArrow=classic;startArrow=classic;html=1;rounded=0;exitX=1;exitY=1;exitDx=0;exitDy=0;" edge="1" parent="1" source="YHuVpkroIluG6QRTz7fR-43">
          <mxGeometry width="50" height="50" relative="1" as="geometry">
            <mxPoint x="110" y="520" as="sourcePoint" />
            <mxPoint x="110" y="400" as="targetPoint" />
          </mxGeometry>
        </mxCell>
        <mxCell id="YHuVpkroIluG6QRTz7fR-43" value="&lt;font face=&quot;Computer modern&quot;&gt;1&lt;/font&gt;" style="text;html=1;align=center;verticalAlign=middle;whiteSpace=wrap;rounded=0;" vertex="1" parent="1">
          <mxGeometry x="100" y="400" width="10" height="100" as="geometry" />
        </mxCell>
        <mxCell id="YHuVpkroIluG6QRTz7fR-45" value="" style="endArrow=none;dashed=1;html=1;rounded=0;exitX=0.5;exitY=1;exitDx=0;exitDy=0;entryX=0.583;entryY=1.004;entryDx=0;entryDy=0;entryPerimeter=0;" edge="1" parent="1" source="YHuVpkroIluG6QRTz7fR-6" target="YHuVpkroIluG6QRTz7fR-44">
          <mxGeometry width="50" height="50" relative="1" as="geometry">
            <mxPoint x="785" y="450" as="sourcePoint" />
            <mxPoint x="785" y="520" as="targetPoint" />
          </mxGeometry>
        </mxCell>
        <mxCell id="YHuVpkroIluG6QRTz7fR-44" value="" style="ellipse;whiteSpace=wrap;html=1;aspect=fixed;fillColor=#000000;" vertex="1" parent="1">
          <mxGeometry x="765.5" y="495" width="10" height="10" as="geometry" />
        </mxCell>
        <mxCell id="YHuVpkroIluG6QRTz7fR-47" value="" style="ellipse;whiteSpace=wrap;html=1;aspect=fixed;fillColor=#000000;" vertex="1" parent="1">
          <mxGeometry x="372" y="476.5" width="10" height="10" as="geometry" />
        </mxCell>
        <mxCell id="YHuVpkroIluG6QRTz7fR-48" value="" style="ellipse;whiteSpace=wrap;html=1;aspect=fixed;fillColor=#000000;" vertex="1" parent="1">
          <mxGeometry x="493.5" y="476.5" width="10" height="10" as="geometry" />
        </mxCell>
        <mxCell id="YHuVpkroIluG6QRTz7fR-49" value="&lt;font face=&quot;Computer modern&quot;&gt;&lt;i&gt;I&lt;/i&gt;&lt;sub style=&quot;&quot;&gt;1&lt;/sub&gt;&lt;/font&gt;" style="text;html=1;align=center;verticalAlign=middle;whiteSpace=wrap;rounded=0;" vertex="1" parent="1">
          <mxGeometry x="350" y="434" width="65" height="15" as="geometry" />
        </mxCell>
        <mxCell id="YHuVpkroIluG6QRTz7fR-50" value="&lt;font face=&quot;Computer modern&quot;&gt;&lt;i&gt;I&lt;/i&gt;&lt;sub style=&quot;&quot;&gt;2&lt;/sub&gt;&lt;/font&gt;" style="text;html=1;align=center;verticalAlign=middle;whiteSpace=wrap;rounded=0;" vertex="1" parent="1">
          <mxGeometry x="478" y="406" width="41" height="15" as="geometry" />
        </mxCell>
        <mxCell id="YHuVpkroIluG6QRTz7fR-51" value="&lt;font face=&quot;Computer modern&quot;&gt;&lt;i&gt;I&lt;/i&gt;&lt;sub style=&quot;&quot;&gt;&lt;i&gt;a&lt;/i&gt;&lt;/sub&gt;&lt;/font&gt;" style="text;html=1;align=center;verticalAlign=middle;whiteSpace=wrap;rounded=0;" vertex="1" parent="1">
          <mxGeometry x="416" y="414.5" width="65" height="15" as="geometry" />
        </mxCell>
        <mxCell id="YHuVpkroIluG6QRTz7fR-52" value="" style="ellipse;whiteSpace=wrap;html=1;aspect=fixed;fillColor=#000000;" vertex="1" parent="1">
          <mxGeometry x="443.5" y="476.5" width="10" height="10" as="geometry" />
        </mxCell>
        <mxCell id="YHuVpkroIluG6QRTz7fR-53" value="" style="endArrow=none;html=1;rounded=0;entryX=0;entryY=0.5;entryDx=0;entryDy=0;" edge="1" parent="1" source="YHuVpkroIluG6QRTz7fR-47" target="YHuVpkroIluG6QRTz7fR-48">
          <mxGeometry width="50" height="50" relative="1" as="geometry">
            <mxPoint x="307" y="461.5" as="sourcePoint" />
            <mxPoint x="357" y="411.5" as="targetPoint" />
          </mxGeometry>
        </mxCell>
        <mxCell id="YHuVpkroIluG6QRTz7fR-54" value="" style="endArrow=none;html=1;rounded=0;exitX=0.5;exitY=0;exitDx=0;exitDy=0;" edge="1" parent="1" source="YHuVpkroIluG6QRTz7fR-47">
          <mxGeometry width="50" height="50" relative="1" as="geometry">
            <mxPoint x="378" y="482.5" as="sourcePoint" />
            <mxPoint x="377" y="451.5" as="targetPoint" />
          </mxGeometry>
        </mxCell>
        <mxCell id="YHuVpkroIluG6QRTz7fR-55" value="" style="endArrow=none;html=1;rounded=0;exitX=0.5;exitY=0;exitDx=0;exitDy=0;" edge="1" parent="1" source="YHuVpkroIluG6QRTz7fR-48">
          <mxGeometry width="50" height="50" relative="1" as="geometry">
            <mxPoint x="417" y="461.5" as="sourcePoint" />
            <mxPoint x="498" y="421.5" as="targetPoint" />
          </mxGeometry>
        </mxCell>
        <mxCell id="YHuVpkroIluG6QRTz7fR-56" value="" style="endArrow=none;dashed=1;html=1;rounded=0;" edge="1" parent="1">
          <mxGeometry width="50" height="50" relative="1" as="geometry">
            <mxPoint x="377" y="451.5" as="sourcePoint" />
            <mxPoint x="497" y="421.5" as="targetPoint" />
          </mxGeometry>
        </mxCell>
        <mxCell id="YHuVpkroIluG6QRTz7fR-57" value="" style="endArrow=none;dashed=1;html=1;dashPattern=1 3;strokeWidth=1;rounded=0;entryX=0.5;entryY=0;entryDx=0;entryDy=0;" edge="1" parent="1" target="YHuVpkroIluG6QRTz7fR-52">
          <mxGeometry width="50" height="50" relative="1" as="geometry">
            <mxPoint x="448" y="434.5" as="sourcePoint" />
            <mxPoint x="487" y="441.5" as="targetPoint" />
          </mxGeometry>
        </mxCell>
        <mxCell id="YHuVpkroIluG6QRTz7fR-59" value="&lt;font face=&quot;Computer modern&quot;&gt;∆&lt;i&gt;u&lt;/i&gt;&lt;/font&gt;" style="text;html=1;align=center;verticalAlign=middle;whiteSpace=wrap;rounded=0;" vertex="1" parent="1">
          <mxGeometry x="378" y="471.5" width="70" height="9" as="geometry" />
        </mxCell>
        <mxCell id="YHuVpkroIluG6QRTz7fR-60" value="" style="endArrow=classic;startArrow=classic;html=1;rounded=0;" edge="1" parent="1">
          <mxGeometry width="50" height="50" relative="1" as="geometry">
            <mxPoint x="378" y="496.5" as="sourcePoint" />
            <mxPoint x="500" y="496.5" as="targetPoint" />
          </mxGeometry>
        </mxCell>
        <mxCell id="YHuVpkroIluG6QRTz7fR-61" value="&lt;font face=&quot;Computer modern&quot;&gt;1&lt;/font&gt;" style="text;html=1;align=center;verticalAlign=middle;whiteSpace=wrap;rounded=0;" vertex="1" parent="1">
          <mxGeometry x="378" y="497.5" width="120" height="10" as="geometry" />
        </mxCell>
        <mxCell id="YHuVpkroIluG6QRTz7fR-106" value="" style="ellipse;whiteSpace=wrap;html=1;aspect=fixed;fillColor=#000000;" vertex="1" parent="1">
          <mxGeometry x="520" y="476.5" width="10" height="10" as="geometry" />
        </mxCell>
        <mxCell id="YHuVpkroIluG6QRTz7fR-107" value="" style="ellipse;whiteSpace=wrap;html=1;aspect=fixed;fillColor=#000000;" vertex="1" parent="1">
          <mxGeometry x="641.5" y="476.5" width="10" height="10" as="geometry" />
        </mxCell>
        <mxCell id="YHuVpkroIluG6QRTz7fR-108" value="&lt;font face=&quot;Computer modern&quot;&gt;&lt;i&gt;I&lt;/i&gt;&lt;sub style=&quot;&quot;&gt;3&lt;/sub&gt;&lt;/font&gt;" style="text;html=1;align=center;verticalAlign=middle;whiteSpace=wrap;rounded=0;" vertex="1" parent="1">
          <mxGeometry x="499" y="419" width="65" height="15" as="geometry" />
        </mxCell>
        <mxCell id="YHuVpkroIluG6QRTz7fR-109" value="&lt;font face=&quot;Computer modern&quot;&gt;&lt;i&gt;I&lt;/i&gt;&lt;sub style=&quot;&quot;&gt;4&lt;/sub&gt;&lt;/font&gt;" style="text;html=1;align=center;verticalAlign=middle;whiteSpace=wrap;rounded=0;" vertex="1" parent="1">
          <mxGeometry x="626" y="445" width="41" height="15" as="geometry" />
        </mxCell>
        <mxCell id="YHuVpkroIluG6QRTz7fR-110" value="&lt;font face=&quot;Computer modern&quot;&gt;&lt;i&gt;I&lt;/i&gt;&lt;sub style=&quot;&quot;&gt;&lt;i&gt;b&lt;/i&gt;&lt;/sub&gt;&lt;/font&gt;" style="text;html=1;align=center;verticalAlign=middle;whiteSpace=wrap;rounded=0;" vertex="1" parent="1">
          <mxGeometry x="564" y="434" width="65" height="15" as="geometry" />
        </mxCell>
        <mxCell id="YHuVpkroIluG6QRTz7fR-111" value="" style="ellipse;whiteSpace=wrap;html=1;aspect=fixed;fillColor=#000000;" vertex="1" parent="1">
          <mxGeometry x="591.5" y="476.5" width="10" height="10" as="geometry" />
        </mxCell>
        <mxCell id="YHuVpkroIluG6QRTz7fR-112" value="" style="endArrow=none;html=1;rounded=0;entryX=0;entryY=0.5;entryDx=0;entryDy=0;" edge="1" parent="1" source="YHuVpkroIluG6QRTz7fR-106" target="YHuVpkroIluG6QRTz7fR-107">
          <mxGeometry width="50" height="50" relative="1" as="geometry">
            <mxPoint x="455" y="461.5" as="sourcePoint" />
            <mxPoint x="505" y="411.5" as="targetPoint" />
          </mxGeometry>
        </mxCell>
        <mxCell id="YHuVpkroIluG6QRTz7fR-113" value="" style="endArrow=none;html=1;rounded=0;exitX=0.5;exitY=0;exitDx=0;exitDy=0;" edge="1" parent="1" source="YHuVpkroIluG6QRTz7fR-106">
          <mxGeometry width="50" height="50" relative="1" as="geometry">
            <mxPoint x="526" y="482.5" as="sourcePoint" />
            <mxPoint x="525" y="434" as="targetPoint" />
          </mxGeometry>
        </mxCell>
        <mxCell id="YHuVpkroIluG6QRTz7fR-114" value="" style="endArrow=none;html=1;rounded=0;exitX=0.5;exitY=0;exitDx=0;exitDy=0;" edge="1" parent="1" source="YHuVpkroIluG6QRTz7fR-107">
          <mxGeometry width="50" height="50" relative="1" as="geometry">
            <mxPoint x="565" y="461.5" as="sourcePoint" />
            <mxPoint x="646" y="463" as="targetPoint" />
          </mxGeometry>
        </mxCell>
        <mxCell id="YHuVpkroIluG6QRTz7fR-115" value="" style="endArrow=none;dashed=1;html=1;rounded=0;" edge="1" parent="1">
          <mxGeometry width="50" height="50" relative="1" as="geometry">
            <mxPoint x="525" y="434" as="sourcePoint" />
            <mxPoint x="645" y="463" as="targetPoint" />
          </mxGeometry>
        </mxCell>
        <mxCell id="YHuVpkroIluG6QRTz7fR-116" value="" style="endArrow=none;dashed=1;html=1;dashPattern=1 3;strokeWidth=1;rounded=0;entryX=0.5;entryY=0;entryDx=0;entryDy=0;" edge="1" parent="1" target="YHuVpkroIluG6QRTz7fR-111">
          <mxGeometry width="50" height="50" relative="1" as="geometry">
            <mxPoint x="596" y="451" as="sourcePoint" />
            <mxPoint x="635" y="441.5" as="targetPoint" />
          </mxGeometry>
        </mxCell>
        <mxCell id="YHuVpkroIluG6QRTz7fR-117" value="&lt;font face=&quot;Computer modern&quot;&gt;∆&lt;i&gt;u&lt;/i&gt;&lt;/font&gt;" style="text;html=1;align=center;verticalAlign=middle;whiteSpace=wrap;rounded=0;" vertex="1" parent="1">
          <mxGeometry x="526" y="471.5" width="70" height="9" as="geometry" />
        </mxCell>
        <mxCell id="YHuVpkroIluG6QRTz7fR-118" value="" style="endArrow=classic;startArrow=classic;html=1;rounded=0;" edge="1" parent="1">
          <mxGeometry width="50" height="50" relative="1" as="geometry">
            <mxPoint x="526" y="496.5" as="sourcePoint" />
            <mxPoint x="648" y="496.5" as="targetPoint" />
          </mxGeometry>
        </mxCell>
        <mxCell id="YHuVpkroIluG6QRTz7fR-119" value="&lt;font face=&quot;Computer modern&quot;&gt;1&lt;/font&gt;" style="text;html=1;align=center;verticalAlign=middle;whiteSpace=wrap;rounded=0;" vertex="1" parent="1">
          <mxGeometry x="526" y="497.5" width="120" height="10" as="geometry" />
        </mxCell>
        <mxCell id="YHuVpkroIluG6QRTz7fR-120" value="" style="endArrow=none;dashed=1;html=1;rounded=0;entryX=0.5;entryY=0;entryDx=0;entryDy=0;exitX=0.583;exitY=-0.005;exitDx=0;exitDy=0;exitPerimeter=0;" edge="1" parent="1" source="YHuVpkroIluG6QRTz7fR-1" target="YHuVpkroIluG6QRTz7fR-46">
          <mxGeometry width="50" height="50" relative="1" as="geometry">
            <mxPoint x="770.5" y="400" as="sourcePoint" />
            <mxPoint x="770.5" y="432" as="targetPoint" />
          </mxGeometry>
        </mxCell>
        <mxCell id="YHuVpkroIluG6QRTz7fR-46" value="" style="ellipse;whiteSpace=wrap;html=1;aspect=fixed;fillColor=#000000;" vertex="1" parent="1">
          <mxGeometry x="765.5" y="395" width="10" height="10" as="geometry" />
        </mxCell>
      </root>
    </mxGraphModel>
  </diagram>
</mxfile>
